<svg width="16" height="13" viewBox="0 0 16 13" fill="none" xmlns="http://www.w3.org/2000/svg">
<path d="M13.2407 1.92903C13.2367 1.92125 13.2301 1.91516 13.222 1.91184C12.2859 1.48236 11.2981 1.17611 10.2833 1.00075C10.274 0.999037 10.2645 1.00027 10.256 1.00429C10.2476 1.0083 10.2406 1.01488 10.236 1.02309C10.1015 1.26723 9.97943 1.518 9.8702 1.77444C8.77625 1.60838 7.6635 1.60838 6.56955 1.77444C6.45959 1.51734 6.33553 1.26652 6.19793 1.02309C6.19321 1.01506 6.18618 1.00863 6.17775 1.00464C6.16933 1.00066 6.15989 0.9993 6.15069 1.00075C5.13573 1.17574 4.14785 1.48202 3.21191 1.91186C3.2039 1.91526 3.19714 1.92106 3.19256 1.92846C1.32086 4.7236 0.808134 7.45001 1.05966 10.1427C1.06037 10.1493 1.0624 10.1556 1.06562 10.1614C1.06885 10.1672 1.07321 10.1723 1.07845 10.1764C2.16832 10.9834 3.38736 11.5994 4.68353 11.998C4.69266 12.0008 4.70241 12.0006 4.71147 11.9977C4.72052 11.9947 4.72845 11.989 4.73419 11.9814C5.01258 11.6026 5.25925 11.2015 5.47171 10.7822C5.47463 10.7764 5.47629 10.7701 5.4766 10.7637C5.4769 10.7572 5.47584 10.7508 5.47347 10.7448C5.47111 10.7388 5.4675 10.7334 5.46288 10.7288C5.45826 10.7243 5.45274 10.7209 5.44669 10.7186C5.0577 10.5698 4.68111 10.3904 4.32046 10.1821C4.31391 10.1782 4.30841 10.1728 4.30444 10.1663C4.30047 10.1598 4.29816 10.1525 4.29771 10.1449C4.29726 10.1373 4.29869 10.1297 4.30186 10.1228C4.30504 10.1159 4.30987 10.1099 4.31592 10.1053C4.39159 10.0486 4.46731 9.98964 4.53958 9.93008C4.546 9.92479 4.55376 9.9214 4.56201 9.92029C4.57025 9.91918 4.57864 9.92039 4.58623 9.92379C6.949 11.0021 9.50702 11.0021 11.8418 9.92379C11.8494 9.92017 11.8579 9.91879 11.8663 9.9198C11.8746 9.92082 11.8825 9.92418 11.8891 9.92951C11.9614 9.98908 12.0371 10.0486 12.1133 10.1053C12.1194 10.1099 12.1242 10.1158 12.1275 10.1227C12.1307 10.1296 12.1322 10.1372 12.1318 10.1448C12.1314 10.1523 12.1291 10.1597 12.1252 10.1662C12.1213 10.1727 12.1158 10.1782 12.1093 10.1821C11.7495 10.3921 11.3726 10.5714 10.9825 10.7181C10.9765 10.7204 10.971 10.7239 10.9664 10.7285C10.9618 10.7331 10.9582 10.7386 10.9559 10.7446C10.9536 10.7507 10.9526 10.7572 10.953 10.7636C10.9533 10.7701 10.955 10.7764 10.958 10.7822C11.174 11.1992 11.4203 11.5998 11.6949 11.9808C11.7005 11.9886 11.7084 11.9945 11.7175 11.9975C11.7266 12.0006 11.7364 12.0008 11.7456 11.998C13.0441 11.6006 14.2653 10.9846 15.3565 10.1764C15.3618 10.1725 15.3662 10.1676 15.3695 10.1619C15.3727 10.1561 15.3747 10.1498 15.3753 10.1432C15.6764 7.03024 14.8712 4.32617 13.2407 1.92903ZM5.82457 8.50312C5.1132 8.50312 4.52705 7.85031 4.52705 7.04858C4.52705 6.24686 5.10183 5.594 5.82457 5.594C6.55295 5.594 7.13342 6.25253 7.12205 7.04853C7.12205 7.85031 6.54725 8.50312 5.82457 8.50312ZM10.6219 8.50312C9.91051 8.50312 9.32437 7.85031 9.32437 7.04858C9.32437 6.24686 9.89914 5.594 10.6219 5.594C11.3503 5.594 11.9307 6.25253 11.9194 7.04853C11.9194 7.85031 11.3503 8.50312 10.6219 8.50312Z" fill="white" stroke="white" stroke-width="0.5775"/>
</svg>
