<svg width="10" height="12" viewBox="0 0 10 12" fill="none" xmlns="http://www.w3.org/2000/svg">
<mask id="path-1-inside-1_1_737" fill="white">
<path d="M0 0.996165C0 0.445998 0.447091 -0.00513987 0.994531 0.0495761C2.13873 0.163938 3.25721 0.475068 4.29987 0.97165C5.64304 1.61135 6.82655 2.54269 7.76415 3.69778C8.70174 4.85287 9.3698 6.20261 9.71962 7.64862C9.99117 8.77111 10.0657 9.92966 9.94228 11.0729C9.88325 11.6199 9.34981 11.9647 8.8114 11.8515C8.27299 11.7384 7.93484 11.2099 7.98029 10.6616C8.05085 9.81047 7.98497 8.95135 7.78315 8.11709C7.50303 6.95917 6.96807 5.87835 6.21727 4.95339C5.46648 4.02843 4.51876 3.28265 3.44319 2.7704C2.66827 2.40133 1.84106 2.16019 0.993608 2.05421C0.447692 1.98595 0 1.54633 0 0.996165Z"/>
</mask>
<path d="M0 0.996165C0 0.445998 0.447091 -0.00513987 0.994531 0.0495761C2.13873 0.163938 3.25721 0.475068 4.29987 0.97165C5.64304 1.61135 6.82655 2.54269 7.76415 3.69778C8.70174 4.85287 9.3698 6.20261 9.71962 7.64862C9.99117 8.77111 10.0657 9.92966 9.94228 11.0729C9.88325 11.6199 9.34981 11.9647 8.8114 11.8515C8.27299 11.7384 7.93484 11.2099 7.98029 10.6616C8.05085 9.81047 7.98497 8.95135 7.78315 8.11709C7.50303 6.95917 6.96807 5.87835 6.21727 4.95339C5.46648 4.02843 4.51876 3.28265 3.44319 2.7704C2.66827 2.40133 1.84106 2.16019 0.993608 2.05421C0.447692 1.98595 0 1.54633 0 0.996165Z" stroke="black" stroke-width="2" mask="url(#path-1-inside-1_1_737)"/>
</svg>
