<svg width="20" height="20" viewBox="0 0 20 20" fill="none" xmlns="http://www.w3.org/2000/svg">
<path fill-rule="evenodd" clip-rule="evenodd" d="M18.0982 0.895412C17.5659 0.367904 16.7035 0.368242 16.1716 0.896152L10.0377 6.98407L9.75893 6.70746C8.42304 7.41711 7.01767 7.97541 5.51529 8.22385C3.70145 8.5238 1.87484 8.6464 0.037936 8.6464C-0.479084 14.8024 4.35296 20.0219 10.6021 19.4582L10.8202 19.0254C11.5139 17.6489 12.1886 15.6304 12.6816 13.9999C13.0269 12.8579 13.3417 11.7081 13.6335 10.5518L13.4664 10.386L19.6013 4.29716C20.1333 3.76901 20.1328 2.91276 19.6004 2.38498L18.0982 0.895412ZM11.276 8.21265L12.2282 9.15742L18.0879 3.3416L17.1354 2.39712L11.276 8.21265ZM7.3924 9.57183L11.0841 13.2347C11.3531 12.3321 11.5659 11.5522 11.6909 11.0815L9.41907 8.82742C8.95545 9.03435 8.24918 9.3217 7.3924 9.57183ZM10.4945 15.1069L5.35584 10.0083C3.83853 10.2368 2.50898 10.3258 1.69411 10.361C1.80597 14.4923 5.58011 17.8571 9.4691 17.7974C9.82097 17.0222 10.1728 16.0695 10.4945 15.1069Z" fill="black"/>
</svg>
