<svg width="24" height="24" viewBox="0 0 24 24" fill="none" xmlns="http://www.w3.org/2000/svg">
<path d="M15.0117 1.95312C14.7465 1.95312 14.4738 2.09163 14.2823 2.27493C12.7337 3.75773 12.2595 4.99773 12.8257 6.69633C11.5046 7.70893 10.6702 7.95743 9.02099 7.95743C6.76649 7.95743 5.29449 8.22923 4.29289 9.23013V9.26133C3.35569 10.1981 3.35569 11.6981 4.29289 12.6341L7.09309 15.4561L2.32199 20.2251C1.93149 20.6151 1.90239 21.2701 2.29289 21.6601C2.68349 22.0511 3.33989 22.0511 3.73049 21.6601L8.51929 16.8701L11.3242 19.6611C12.2615 20.5981 13.7619 20.5981 14.6992 19.6611H14.7305C15.7325 18.6601 16.0117 17.3771 16.0117 14.9451C16.0117 13.3991 16.329 12.3081 17.2897 11.1601C19.1386 11.7021 20.2143 11.1831 21.7305 9.66743C21.918 9.47993 22.0117 9.21413 22.0117 8.94903C22.0117 8.59733 21.9229 8.05823 21.6992 7.38743C21.3389 6.30733 20.7186 5.22063 19.7305 4.23303C18.7423 3.24553 17.6549 2.62553 16.5742 2.26543C15.903 2.04183 15.3636 1.95312 15.0117 1.95312ZM15.399 4.00773C16.4614 4.20493 17.5311 4.90822 18.2929 5.66973C19.0548 6.43113 19.7037 7.36372 19.9722 8.58602C19.0177 9.50163 18.4339 9.57403 17.4793 9.07153C17.0985 8.87103 16.616 8.94193 16.3117 9.24613C14.4907 11.0661 14.0117 12.7171 14.0117 14.9451C14.0117 16.8851 13.8976 17.6061 13.2929 18.2561C13.1222 18.4401 12.8867 18.4121 12.7305 18.2561L5.69919 11.2291C5.54299 11.0731 5.54779 10.8731 5.67369 10.7201C6.03089 10.2851 6.82589 9.94723 9.01169 9.94843C11.6247 9.94993 13.0138 9.27703 14.7305 7.66853C15.0348 7.36433 15.1104 6.89773 14.9179 6.51293C14.4037 5.48503 14.4839 4.94323 15.399 4.00773Z" fill="#888888"/>
</svg>
